<svg width="235" height="40" viewBox="0 0 235 40" fill="none" xmlns="http://www.w3.org/2000/svg">
<path fill-rule="evenodd" clip-rule="evenodd" d="M23.611 30.6995V9.30233H35.8056C38.8039 9.30233 41.179 9.954 42.8779 11.2938C44.5974 12.6266 45.4494 14.3523 45.4494 16.4444C45.4494 17.8368 45.0707 19.0992 44.3063 20.225L44.305 20.2269C43.5365 21.3383 42.4141 22.2062 40.9483 22.8288C39.5068 23.4536 37.8027 23.7599 35.8496 23.7599H29.6166V30.6995H23.611ZM38.1922 19.2142C39.0127 18.5877 39.4438 17.6975 39.4438 16.5022C39.4438 15.3273 39.0137 14.4579 38.1959 13.8509C37.3748 13.2414 36.1855 12.9167 34.5742 12.9167H29.6166V20.1744H34.5742C36.2152 20.1744 37.3987 19.8402 38.188 19.2175L38.1922 19.2142Z" fill="#0D0D0D"/>
<path d="M18.8793 9.41911V13.4608H5.82358V30.8163H0V9.41911H18.8793Z" fill="#0D0D0D"/>
<path d="M102.246 9.30023V13.3815H94.9662V30.6974H89.1426V13.3815H81.8631V9.30023H102.246Z" fill="#0D0D0D"/>
<path d="M123.08 25.8236C123.792 25.2953 124.488 24.6085 125.167 23.7632L129.438 26.0217C127.399 28.4785 124.924 30.0766 122.012 30.8163C120.589 31.1069 119.182 31.2522 117.79 31.2522C115.752 31.2522 113.989 30.988 112.501 30.4597C110.171 29.72 108.359 28.3992 107.065 26.4972C105.804 24.5688 105.173 22.4291 105.173 20.0781C105.173 17.9384 105.658 15.9968 106.629 14.2533C107.631 12.5098 109.12 11.1362 111.093 10.1323C113.067 9.20777 115.267 8.74549 117.693 8.74549C119.085 8.74549 120.427 8.91719 121.721 9.26061C123.048 9.5776 124.245 10.0531 125.313 10.6871C126.93 11.6645 128.16 13.0117 129.001 14.7288C129.874 16.4194 130.311 18.2289 130.311 20.1573C130.311 20.6064 130.295 20.9366 130.263 21.1479H111.287C111.514 23.8424 112.646 25.6387 114.684 26.5369C115.752 26.9331 116.933 27.1312 118.227 27.1312C119.068 27.1312 119.877 27.052 120.654 26.8935C121.592 26.6822 122.401 26.3255 123.08 25.8236ZM117.693 12.8664C116.27 12.8664 115.024 13.1834 113.957 13.8174C112.662 14.5307 111.837 15.7986 111.482 17.6214H124.051C123.889 16.4326 123.42 15.442 122.643 14.6495C121.899 13.8306 120.88 13.3023 119.586 13.0646C118.874 12.9325 118.243 12.8664 117.693 12.8664Z" fill="#0D0D0D"/>
<path d="M151.428 25.0708C151.881 24.4632 152.204 23.7499 152.398 22.931L158.125 24.2386C157.639 25.6387 156.814 26.9067 155.65 28.0426C154.517 29.1521 153.175 29.9578 151.622 30.4597C150.069 31.0144 148.37 31.2918 146.526 31.2918C144.65 31.2918 142.951 31.0144 141.43 30.4597C139.133 29.6936 137.354 28.3596 136.092 26.4576C134.83 24.5292 134.2 22.4159 134.2 20.1177C134.2 17.8195 134.83 15.693 136.092 13.7382C137.354 11.7834 139.133 10.3833 141.43 9.53798C142.983 8.98324 144.666 8.70587 146.478 8.70587C148.289 8.70587 150.004 8.98324 151.622 9.53798C153.336 10.1456 154.76 11.0569 155.892 12.2721C157.025 13.4608 157.834 14.8212 158.319 16.3534L152.398 17.1459C152.172 16.2213 151.848 15.4816 151.428 14.9269C150.91 14.2401 150.198 13.725 149.292 13.3815C148.419 13.0117 147.481 12.8268 146.478 12.8268C145.507 12.8268 144.569 13.0117 143.663 13.3815C142.789 13.7514 142.11 14.2665 141.625 14.9269C141.204 15.4816 140.88 16.2213 140.654 17.1459C140.428 18.044 140.314 19.0082 140.314 20.0385C140.314 21.0423 140.428 21.9933 140.654 22.8914C140.88 23.7896 141.204 24.516 141.625 25.0708C142.142 25.7576 142.838 26.2859 143.711 26.6557C144.617 26.9991 145.572 27.1708 146.575 27.1708C147.545 27.1708 148.467 26.9859 149.341 26.6161C150.247 26.2463 150.942 25.7312 151.428 25.0708Z" fill="#0D0D0D"/>
<path d="M168.3 21.6704V30.6974H162.477V9.30023H168.3V17.6214H180.433L186.305 9.30023H192.711L185.14 19.2533L193.681 30.6974H187.13L180.481 21.6704H168.3Z" fill="#0D0D0D"/>
<path fill-rule="evenodd" clip-rule="evenodd" d="M75.9198 28.6063C75.8686 28.6443 75.8203 28.6822 75.7691 28.7196C75.8117 28.6871 75.8572 28.6541 75.8999 28.6216C75.9056 28.6161 75.9141 28.6118 75.9198 28.6063ZM77.4781 14.0336C76.207 12.3285 74.444 11.018 72.1635 10.099C69.8375 9.17751 67.156 8.70819 64.0963 8.70819C61.1163 8.70819 58.4718 9.19159 56.1486 10.1431C53.8255 11.0946 52.0426 12.4223 50.7715 14.1231C49.4663 15.8263 48.8094 17.7765 48.8094 20.0012C48.8094 22.2583 49.4691 24.2238 50.7687 25.9191C52.0426 27.626 53.8226 28.9531 56.1458 29.9039C58.469 30.826 61.1163 31.2941 64.0963 31.2941C67.2328 31.2941 69.954 30.8242 72.2744 29.9033C74.5549 28.9837 76.298 27.6897 77.5293 26.0238C78.0098 25.3615 78.3965 24.6526 78.6923 23.8954C79.1501 22.7159 79.3832 21.4201 79.3832 20.0012C79.3832 17.6742 78.7406 15.694 77.4781 14.0336ZM53.9582 20.0012C53.9582 22.1394 54.9933 23.8206 57.0434 24.9682C59.0425 26.0545 60.9429 26.5654 64.0963 26.5654C65.811 26.5654 66.665 26.4116 68.0583 26.0955C69.1701 25.8437 70.1739 25.4889 71.0696 25.027C73.1795 23.9039 74.2345 22.1995 74.2345 20.0012C74.2345 17.8629 73.1966 16.1939 71.1436 15.077C69.1189 13.9656 67.2186 13.4369 64.0963 13.4369C60.9798 13.4369 59.0993 13.9485 57.1089 15.028C55.016 16.1443 53.9582 17.8304 53.9582 20.0012Z" fill="#0D0D0D"/>
<path d="M217.04 8C213.734 8 211.054 10.6863 211.054 14V21.4092L220.691 11.75L232.522 23.6075L229.995 26.1403L221.814 17.9404L211.5 28.2772C212.395 30.4616 214.538 32 217.04 32H229.013C232.32 32 235 29.3137 235 26V14C235 10.6863 232.32 8 229.013 8H217.04Z" fill="#0D0D0D"/>
</svg>
